<svg version="1.1" id="Layer_1" xmlns="http://www.w3.org/2000/svg" xmlns:xlink="http://www.w3.org/1999/xlink" x="0px" y="0px"
	 width="100%" viewBox="0 0 750 750" enable-background="new 0 0 750 750" xml:space="preserve">
<path fill="#FFFFFF" opacity="1.000000" stroke="none" 
	d="
M336.000000,751.000000 
	C224.000000,751.000000 112.500000,751.000000 1.000000,751.000000 
	C1.000000,501.000000 1.000000,251.000000 1.000000,1.000000 
	C251.000000,1.000000 501.000000,1.000000 751.000000,1.000000 
	C751.000000,251.000000 751.000000,501.000000 751.000000,751.000000 
	C612.833313,751.000000 474.666656,751.000000 336.000000,751.000000 
M716.792786,336.001862 
	C724.334900,331.402740 731.361877,326.284485 736.632751,318.955231 
	C743.345093,309.621582 745.878113,293.724731 738.604065,283.843719 
	C731.259338,273.866669 720.979553,269.862244 709.738770,269.246552 
	C692.656433,268.310913 675.484924,269.001740 658.484009,269.001740 
	C648.554016,312.743286 638.704224,356.131439 628.745361,400.000000 
	C637.454956,400.000000 645.764648,399.811768 654.059204,400.084503 
	C657.846619,400.208984 658.912903,398.589050 659.029053,395.245361 
	C659.263733,388.490234 659.624329,381.738525 660.014038,374.990051 
	C660.307739,369.904327 660.669983,364.820892 661.104492,359.745239 
	C661.852722,351.003845 662.681030,342.269287 663.475708,333.531860 
	C662.918213,333.425201 662.360657,333.318512 661.803162,333.211823 
	C661.007019,336.523315 660.190735,339.830139 659.418274,343.147156 
	C656.272766,356.653839 652.752747,370.091187 650.208008,383.710541 
	C649.280823,388.672485 647.557373,389.790222 642.992004,388.623505 
	C644.660583,382.041229 646.452576,375.551453 647.942810,368.993103 
	C654.341064,340.835266 660.749939,312.678711 666.858704,284.457550 
	C667.570862,281.167419 669.024719,280.970428 671.547913,280.979645 
	C683.874939,281.024658 696.218628,280.635620 708.520569,281.192963 
	C712.967896,281.394470 717.550354,283.318970 721.659241,285.308075 
	C730.233643,289.458954 733.969360,301.225800 730.393372,313.424500 
	C727.684448,322.665405 721.851990,329.126007 714.761230,335.786163 
	C714.219116,335.961456 713.676941,336.136749 713.134827,336.312042 
	C713.237976,336.595154 713.341187,336.878296 713.444336,337.161407 
	C714.320923,336.801147 715.197449,336.440918 716.792786,336.001862 
M435.954132,333.166901 
	C436.419891,323.199646 436.885651,313.232361 437.351410,303.265106 
	C437.133789,303.199921 436.916168,303.134766 436.698547,303.069580 
	C430.664276,329.555054 424.630005,356.040527 418.487732,383.000000 
	C428.174866,383.000000 436.819550,382.959564 445.463654,383.009277 
	C459.088898,383.087585 470.227142,377.003723 478.847443,367.344574 
	C492.294159,352.277435 498.012207,333.954651 496.866821,313.821564 
	C496.442902,306.370300 493.962433,299.026550 488.183411,293.870087 
	C481.963440,288.320221 474.328918,285.843109 465.840149,285.959869 
	C454.180084,286.120270 442.516174,286.000000 430.853912,286.000000 
	C422.746765,286.000000 422.792542,286.010406 420.991913,293.927185 
	C416.019318,315.789581 410.989532,337.639008 406.012573,359.500427 
	C402.973358,372.850128 399.989838,386.212494 396.884277,400.000000 
	C409.660858,400.000000 422.134308,400.120148 434.603729,399.949371 
	C440.847839,399.863861 447.315247,400.181274 453.283844,398.706482 
	C476.176147,393.049744 493.159210,379.713165 504.185181,358.571411 
	C512.736206,342.175110 516.321594,324.861145 514.764526,306.674561 
	C514.235046,300.491241 511.900635,294.011078 508.785858,288.588562 
	C500.757355,274.611603 487.044037,269.747559 471.935120,269.146637 
	C455.633759,268.498322 439.286621,268.994995 422.959473,269.011322 
	C421.876953,269.012390 420.794556,269.175812 419.712097,269.263702 
	C426.553650,270.431366 433.335846,271.488770 440.158142,271.938965 
	C453.341125,272.808838 466.106995,275.472870 478.487732,280.010681 
	C495.442719,286.225067 501.597595,296.312317 502.955658,314.193542 
	C503.847107,325.930664 501.623535,337.347687 496.868286,347.983948 
	C488.596375,366.486115 476.407379,381.779938 455.455505,385.872650 
	C441.068573,388.682953 426.165924,388.852936 410.937775,390.254272 
	C418.232880,358.191162 425.172760,327.689331 431.927673,298.000397 
	C444.519165,298.000397 456.602051,297.488922 468.618652,298.161713 
	C478.288177,298.703094 484.676697,306.790222 485.035828,316.569946 
	C485.475952,328.554718 482.908997,339.686005 477.322021,350.360199 
	C468.684937,366.861816 451.495850,375.267242 432.826996,371.293030 
	C433.716248,358.894135 434.608978,346.446320 435.954132,333.166901 
M326.502472,300.001526 
	C321.669159,290.671051 316.835815,281.340576 312.002502,272.010101 
	C311.606842,272.195648 311.211182,272.381195 310.815521,272.566742 
	C324.579712,310.639923 338.343872,348.713135 352.108063,386.786316 
	C352.438507,386.752258 352.768951,386.718201 353.099396,386.684143 
	C361.109772,351.504639 369.120178,316.325104 377.113159,281.222046 
	C379.302155,281.222046 381.082092,281.222046 382.983459,281.222046 
	C374.798492,317.267914 366.667419,353.076416 358.510468,388.998901 
	C354.997375,388.998901 351.649506,389.230927 348.364777,388.877045 
	C347.163116,388.747620 345.515015,387.453369 345.081543,386.307922 
	C339.620636,371.877258 334.271545,357.402954 329.038177,342.887817 
	C320.171265,318.294556 311.407349,293.664215 302.582520,269.000244 
	C299.816772,269.000244 297.263611,268.672607 294.857544,269.125793 
	C293.463226,269.388397 291.464722,270.700562 291.171570,271.892822 
	C288.282532,283.642761 285.683533,295.464172 283.023193,307.270050 
	C278.022156,329.463623 273.013824,351.655609 268.053192,373.858215 
	C266.292053,381.740631 264.660889,389.652100 262.970398,397.550293 
	C263.402893,397.669647 263.835419,397.789001 264.267914,397.908356 
	C275.420258,363.622101 286.572571,329.335846 298.175781,293.663391 
	C303.148163,307.314728 307.621704,319.458344 311.996521,331.637451 
	C319.764496,353.262726 327.423615,374.927399 335.314484,396.507507 
	C335.846649,397.962952 337.908020,399.801483 339.308502,399.845093 
	C348.776184,400.139954 358.257477,399.998962 367.863251,399.998962 
	C377.780579,356.322418 387.628815,312.950317 397.607941,269.001556 
	C387.915741,269.001556 379.112000,268.880066 370.320374,269.151093 
	C369.186920,269.186005 367.425232,271.095642 367.123718,272.405914 
	C364.263733,284.834564 361.752136,297.342896 358.949280,309.785278 
	C356.325226,321.433807 353.469666,333.030182 350.338837,346.241028 
	C342.085968,330.139557 334.521362,315.380981 326.502472,300.001526 
M144.000107,379.499939 
	C145.885254,377.616241 147.988129,375.901398 149.608368,373.812225 
	C152.610138,369.941650 156.281586,368.781342 161.177246,368.882202 
	C176.665634,369.201263 192.164734,368.994171 207.659683,369.009735 
	C209.085556,369.011169 210.511292,369.148987 211.667831,369.209412 
	C213.174347,379.778168 214.610397,389.852570 216.009048,399.664673 
	C226.429321,399.664673 236.175812,399.664673 246.487900,399.664673 
	C240.526901,355.915619 234.621140,312.572083 228.684250,269.000000 
	C220.472336,269.000000 212.487259,269.223999 204.525833,268.888031 
	C201.408127,268.756470 199.684875,269.974152 198.289078,272.297272 
	C196.963425,274.503632 195.782822,276.796722 194.474991,279.014252 
	C183.908112,296.931152 173.324921,314.838440 162.749664,332.750427 
	C159.094025,338.942169 155.446701,345.138763 151.572525,351.711609 
	C175.465622,351.711609 198.658630,351.711609 221.698532,351.711609 
	C218.553726,328.730682 215.444519,306.010010 212.335312,283.289307 
	C211.969360,283.329926 211.603394,283.370514 211.237427,283.411102 
	C210.127899,302.182495 209.018387,320.953888 207.919113,339.551758 
	C195.676285,339.551758 183.876556,339.551758 171.756607,339.551758 
	C181.669983,322.859131 191.749466,306.888702 200.715714,290.315948 
	C204.518478,283.287109 208.462173,279.150208 216.707321,281.031708 
	C217.023468,281.103851 217.328430,281.225006 218.141663,281.482758 
	C223.000580,317.077118 227.888916,352.886902 233.013962,390.430725 
	C229.975586,388.732788 226.529999,387.903839 226.259705,386.474457 
	C224.748825,378.484222 223.621048,370.370667 223.159653,362.253967 
	C222.923370,358.097229 221.869171,356.874542 217.704056,356.911194 
	C196.046112,357.101807 174.384186,357.123718 152.727356,356.877472 
	C149.143326,356.836700 147.531219,358.311066 145.977997,360.981018 
	C141.840973,368.092285 137.529099,375.101685 133.372589,382.201843 
	C130.658951,386.837280 128.095108,391.560364 125.903839,395.461456 
	C131.468994,390.571472 137.484543,385.285736 144.000107,379.499939 
M608.228577,294.046448 
	C611.393921,294.698029 614.537415,295.495483 617.728821,295.972778 
	C626.092529,297.223663 626.086548,297.164795 628.008301,288.616364 
	C629.442139,282.238708 630.918884,275.870758 632.490234,269.001526 
	C605.464172,269.001526 579.331055,268.967926 553.198975,269.121460 
	C552.128052,269.127747 550.398987,270.722046 550.107117,271.865143 
	C547.593811,281.708038 545.258423,291.598877 543.026489,301.510681 
	C537.815186,324.653534 532.711792,347.820679 527.521118,370.968231 
	C525.379456,380.518402 523.125916,390.043457 520.826233,400.000000 
	C522.940613,400.000000 524.585938,400.000000 526.231323,400.000000 
	C548.058594,400.000000 569.885803,400.000000 591.713074,400.000000 
	C603.870911,400.000000 603.947327,400.018555 606.731567,388.554688 
	C608.037842,383.176300 608.984741,377.710663 610.215393,371.693756 
	C587.426147,375.368561 565.529358,378.899445 543.632568,382.430359 
	C543.648804,382.682465 543.665039,382.934540 543.681335,383.186646 
	C561.073425,383.186646 578.465515,383.186646 595.952820,383.186646 
	C595.378357,385.431946 594.920349,387.222046 594.513489,388.812469 
	C574.564575,388.812469 554.978943,388.812469 535.301636,388.812469 
	C538.231384,375.685211 541.188965,362.771912 543.947021,349.816101 
	C544.572144,346.880005 545.810608,345.900269 548.865051,345.927155 
	C566.025574,346.078278 583.188232,346.021454 600.349976,345.984558 
	C604.496887,345.975616 609.573608,347.173157 612.501526,345.226654 
	C614.931702,343.611145 614.962219,338.219330 615.821777,334.447113 
	C617.102112,328.828735 618.176392,323.163391 619.392151,317.256439 
	C598.535889,320.387756 578.474304,323.399750 558.412720,326.411774 
	C558.403809,326.782928 558.394836,327.154114 558.385925,327.525299 
	C573.874695,328.040131 589.363525,328.554993 605.161377,329.080139 
	C604.449158,331.106171 603.939453,332.556213 603.498718,333.810059 
	C584.860474,333.810059 566.563477,333.810059 548.149353,333.810059 
	C548.093079,332.990936 547.890625,332.316193 548.028625,331.720337 
	C551.595581,316.321686 555.442139,300.981506 558.626709,285.504944 
	C559.448975,281.508728 560.971130,280.811981 564.452759,280.939331 
	C570.443054,281.158478 576.447205,281.000000 582.445496,281.000000 
	C594.234131,281.000000 606.022766,281.000000 618.135254,281.000000 
	C617.494324,282.962708 617.014099,284.433105 616.482056,286.062317 
	C599.375305,286.062317 582.429321,286.062317 565.483337,286.062317 
	C570.593079,287.684906 575.792053,288.587433 580.992432,289.481689 
	C589.774963,290.991974 598.558411,292.497009 608.228577,294.046448 
M63.003914,366.563019 
	C64.016068,361.656525 64.922073,356.725342 66.058388,351.847778 
	C71.542633,328.306793 77.088898,304.780243 82.611130,281.257233 
	C84.315666,281.257233 86.079781,281.257233 88.310204,281.257233 
	C82.368370,307.522583 76.503326,333.448486 70.638290,359.374359 
	C71.148651,359.508209 71.659019,359.642059 72.169388,359.775909 
	C82.438103,329.639435 92.706818,299.502960 103.030449,269.205322 
	C92.795036,269.205322 83.002563,269.205322 73.338982,269.205322 
	C64.718857,307.112732 56.149239,344.798065 47.456203,383.026123 
	C68.853119,383.026123 89.300041,383.026123 109.746971,383.026123 
	C110.099640,383.411682 110.452301,383.797211 110.804970,384.182770 
	C109.539101,385.787598 108.449043,388.579468 106.977783,388.797363 
	C99.535751,389.899567 91.993118,390.316284 84.488632,391.004639 
	C77.313255,391.662872 70.131943,392.273285 62.970177,393.059113 
	C51.614525,394.305145 40.273716,395.686096 28.925203,396.997620 
	C22.173307,397.777893 15.418680,398.534546 8.665280,399.301819 
	C44.207062,399.999786 79.688644,400.033325 115.169266,399.864471 
	C116.451500,399.858368 118.524612,398.070160 118.870636,396.755035 
	C121.007988,388.631989 122.755386,380.406311 124.700172,371.918823 
	C103.821976,371.918823 83.020569,371.918823 61.751900,371.918823 
	C62.239887,370.158752 62.617676,368.796143 63.003914,366.563019 
M221.482788,476.069275 
	C224.372681,471.193176 227.262589,466.317078 230.731781,460.463501 
	C231.736374,468.660583 232.600311,475.709900 233.493744,483.000000 
	C235.754578,483.000000 237.764679,482.784576 239.711746,483.043365 
	C244.230576,483.644043 246.749649,481.981323 248.881989,477.724609 
	C252.992783,469.518372 258.047821,461.789764 262.576447,453.786804 
	C266.509857,446.835785 270.257141,439.779510 274.175964,432.606354 
	C261.339935,430.529358 259.320648,431.496735 254.032623,441.874207 
	C253.732880,442.462463 253.433716,443.052856 253.096756,443.619934 
	C250.669540,447.704803 248.232651,451.783905 245.798798,455.864838 
	C245.402008,455.729553 245.005219,455.594299 244.608414,455.459045 
	C243.679382,447.735657 242.750336,440.012238 241.815567,432.241272 
	C234.714554,432.241272 228.117752,432.241272 221.088104,432.241272 
	C221.090637,440.321320 225.666183,449.052551 216.749207,456.026123 
	C215.697647,447.836761 214.697372,440.046692 213.699341,432.274078 
	C208.999268,432.274078 204.740402,432.274078 199.648956,432.274078 
	C201.574127,449.345428 203.458740,466.057129 205.365128,482.961945 
	C211.547012,482.399200 218.833908,485.962341 221.482788,476.069275 
M691.953125,384.682281 
	C693.302856,388.979553 694.481812,393.343506 696.117126,397.529175 
	C696.549255,398.635040 698.377258,399.871796 699.584229,399.892700 
	C710.207581,400.076691 720.835449,399.999329 732.106140,399.999329 
	C721.319519,378.907776 710.742859,358.226959 700.143066,337.500732 
	C709.487122,335.453827 719.355286,328.206879 722.737427,317.257568 
	C710.189575,327.848907 695.601685,327.316437 680.434814,326.943512 
	C691.301453,347.999390 701.742737,368.230927 712.201294,388.495911 
	C706.795898,390.189575 704.285767,388.158417 702.167969,383.737274 
	C693.935242,366.550842 685.323853,349.545715 676.819702,332.489838 
	C676.231628,331.310333 675.368591,330.267883 674.633484,329.161682 
	C674.292664,329.318878 673.951782,329.476105 673.610962,329.633301 
	C679.573975,347.755524 685.537048,365.877747 691.953125,384.682281 
M310.717133,463.000427 
	C313.425049,463.000427 316.132965,463.000427 319.206787,463.000427 
	C317.614471,470.108063 316.237427,476.254944 314.780853,482.756744 
	C319.716064,482.756744 323.991394,482.756744 328.769775,482.756744 
	C332.563385,466.060608 336.369507,449.309418 340.257996,432.195679 
	C335.110260,432.195679 330.833557,432.195679 326.270874,432.195679 
	C325.818237,434.373199 325.350677,436.424103 324.969116,438.490906 
	C322.753876,450.489288 322.760529,450.493774 312.255676,449.873749 
	C311.959290,449.856262 311.677429,449.593018 310.838593,449.161011 
	C311.936340,443.723358 313.068573,438.114929 314.257477,432.225861 
	C309.054169,432.225861 304.784485,432.225861 300.435333,432.225861 
	C296.607208,449.104279 292.823975,465.784637 288.919861,482.998047 
	C292.877014,482.998047 296.355042,482.837311 299.810425,483.047821 
	C302.677826,483.222534 303.509491,481.621613 303.989166,479.304626 
	C304.951019,474.658722 305.855438,469.993408 307.080078,465.415436 
	C307.341553,464.438019 308.866211,463.798523 310.717133,463.000427 
M449.501526,432.000000 
	C444.409332,432.000000 439.317139,432.000000 434.496429,432.000000 
	C430.720062,449.259186 427.103943,465.785889 423.389496,482.762146 
	C434.794403,482.762146 445.050476,482.762146 455.729187,482.762146 
	C456.745209,478.313904 457.764526,473.851227 458.889282,468.926941 
	C452.325745,468.926941 446.371368,468.926941 440.079620,468.926941 
	C440.650970,466.703186 441.113617,464.902588 441.602905,462.998138 
	C446.570160,462.998138 451.234528,463.205994 455.859741,462.871979 
	C457.253937,462.771271 459.263824,461.437469 459.730743,460.194794 
	C460.862030,457.183960 461.251373,453.894409 462.061798,450.153687 
	C456.017792,450.153687 450.291534,450.153687 444.565277,450.153687 
	C444.468750,449.513580 444.372192,448.873474 444.275665,448.233337 
	C449.719971,443.067017 457.298370,447.929230 463.790741,445.250275 
	C464.646942,441.231140 465.599335,436.760498 466.613464,432.000000 
	C460.798859,432.000000 455.648651,432.000000 449.501526,432.000000 
M371.058014,433.425690 
	C367.406586,449.801636 363.755127,466.177551 360.050415,482.792419 
	C371.206757,482.792419 381.816132,482.792419 392.732300,482.792419 
	C393.568878,478.265839 394.376587,473.895599 395.315674,468.814514 
	C388.650116,468.814514 382.936035,468.814514 376.772064,468.814514 
	C377.465851,466.501678 377.963165,464.843903 378.544464,462.906128 
	C384.373688,462.906128 389.994049,462.906128 395.813904,462.906128 
	C396.789886,458.513672 397.697266,454.429993 398.708374,449.879425 
	C392.581390,449.879425 386.970306,449.879425 381.359222,449.879425 
	C381.164215,449.390625 380.969238,448.901794 380.774231,448.412994 
	C382.314301,447.609009 383.804810,446.255127 385.404297,446.110962 
	C389.203583,445.768707 393.061523,446.131195 396.880585,445.926147 
	C398.197418,445.855469 400.351868,445.218292 400.610229,444.375763 
	C401.783020,440.551544 402.415466,436.561584 403.254517,432.573303 
	C392.103912,432.573303 381.695526,432.573303 371.058014,433.425690 
M581.998108,465.220856 
	C581.990234,463.722351 582.142456,462.202789 581.948425,460.728790 
	C580.735901,451.515472 572.601562,446.477234 565.575256,451.303009 
	C565.131348,449.861542 564.059204,447.897369 564.487671,447.482330 
	C565.691101,446.316620 567.630432,444.963806 569.068176,445.168579 
	C573.010010,445.729950 576.843384,447.051941 581.048157,448.159332 
	C583.206299,444.452026 585.557068,440.413788 587.892578,436.401764 
	C579.028381,430.741364 567.465393,430.119019 559.348938,434.948639 
	C551.914551,439.372528 548.918518,446.205872 550.051941,454.690125 
	C550.853760,460.692596 554.623535,464.235687 560.307861,465.868164 
	C561.545715,464.165802 562.676392,462.610901 564.678040,459.858185 
	C565.980713,462.912292 566.916138,465.105347 567.851562,467.298401 
	C565.673889,468.198853 563.394531,470.030548 561.339539,469.806213 
	C557.038208,469.336639 552.855225,467.783844 547.752747,466.447906 
	C545.781006,469.744110 543.415283,473.698914 541.107544,477.556793 
	C555.477356,489.809906 576.775635,483.517639 581.998108,465.220856 
M510.127655,442.719421 
	C510.934692,439.257507 511.741730,435.795563 512.568359,432.249756 
	C507.640320,432.249756 503.029907,432.249756 498.290436,432.249756 
	C494.367584,449.084930 490.493408,465.711151 486.518829,482.768372 
	C497.452362,482.768372 507.379639,482.768372 517.752197,482.768372 
	C518.611206,478.372833 519.464478,474.006866 520.456421,468.931122 
	C514.434509,468.931122 509.380585,468.931122 504.105774,468.931122 
	C506.167694,460.088806 508.095428,451.822083 510.127655,442.719421 
M680.556824,299.962433 
	C692.610840,289.509491 706.477844,290.660858 720.755981,293.327515 
	C705.500366,285.175201 689.277832,283.720856 672.365601,286.122040 
	C669.820312,297.366699 667.313782,308.440338 664.867432,319.247864 
	C669.924683,312.979858 674.977844,306.716827 680.556824,299.962433 
z"/>
<path fill="#231F20" opacity="1.000000" stroke="none" 
	d="
M435.727936,333.582703 
	C434.608978,346.446320 433.716248,358.894135 432.826996,371.293030 
	C451.495850,375.267242 468.684937,366.861816 477.322021,350.360199 
	C482.908997,339.686005 485.475952,328.554718 485.035828,316.569946 
	C484.676697,306.790222 478.288177,298.703094 468.618652,298.161713 
	C456.602051,297.488922 444.519165,298.000397 431.927673,298.000397 
	C425.172760,327.689331 418.232880,358.191162 410.937775,390.254272 
	C426.165924,388.852936 441.068573,388.682953 455.455505,385.872650 
	C476.407379,381.779938 488.596375,366.486115 496.868286,347.983948 
	C501.623535,337.347687 503.847107,325.930664 502.955658,314.193542 
	C501.597595,296.312317 495.442719,286.225067 478.487732,280.010681 
	C466.106995,275.472870 453.341125,272.808838 440.158142,271.938965 
	C433.335846,271.488770 426.553650,270.431366 419.712097,269.263702 
	C420.794556,269.175812 421.876953,269.012390 422.959473,269.011322 
	C439.286621,268.994995 455.633759,268.498322 471.935120,269.146637 
	C487.044037,269.747559 500.757355,274.611603 508.785858,288.588562 
	C511.900635,294.011078 514.235046,300.491241 514.764526,306.674561 
	C516.321594,324.861145 512.736206,342.175110 504.185181,358.571411 
	C493.159210,379.713165 476.176147,393.049744 453.283844,398.706482 
	C447.315247,400.181274 440.847839,399.863861 434.603729,399.949371 
	C422.134308,400.120148 409.660858,400.000000 396.884277,400.000000 
	C399.989838,386.212494 402.973358,372.850128 406.012573,359.500427 
	C410.989532,337.639008 416.019318,315.789581 420.991913,293.927185 
	C422.792542,286.010406 422.746765,286.000000 430.853912,286.000000 
	C442.516174,286.000000 454.180084,286.120270 465.840149,285.959869 
	C474.328918,285.843109 481.963440,288.320221 488.183411,293.870087 
	C493.962433,299.026550 496.442902,306.370300 496.866821,313.821564 
	C498.012207,333.954651 492.294159,352.277435 478.847443,367.344574 
	C470.227142,377.003723 459.088898,383.087585 445.463654,383.009277 
	C436.819550,382.959564 428.174866,383.000000 418.487732,383.000000 
	C424.630005,356.040527 430.664276,329.555054 436.698547,303.069580 
	C436.916168,303.134766 437.133789,303.199921 437.351410,303.265106 
	C436.885651,313.232361 436.419891,323.199646 435.727936,333.582703 
z"/>
<path fill="#231F20" opacity="1.000000" stroke="none" 
	d="
M326.729614,300.311951 
	C334.521362,315.380981 342.085968,330.139557 350.338837,346.241028 
	C353.469666,333.030182 356.325226,321.433807 358.949280,309.785278 
	C361.752136,297.342896 364.263733,284.834564 367.123718,272.405914 
	C367.425232,271.095642 369.186920,269.186005 370.320374,269.151093 
	C379.112000,268.880066 387.915741,269.001556 397.607941,269.001556 
	C387.628815,312.950317 377.780579,356.322418 367.863251,399.998962 
	C358.257477,399.998962 348.776184,400.139954 339.308502,399.845093 
	C337.908020,399.801483 335.846649,397.962952 335.314484,396.507507 
	C327.423615,374.927399 319.764496,353.262726 311.996521,331.637451 
	C307.621704,319.458344 303.148163,307.314728 298.175781,293.663391 
	C286.572571,329.335846 275.420258,363.622101 264.267914,397.908356 
	C263.835419,397.789001 263.402893,397.669647 262.970398,397.550293 
	C264.660889,389.652100 266.292053,381.740631 268.053192,373.858215 
	C273.013824,351.655609 278.022156,329.463623 283.023193,307.270050 
	C285.683533,295.464172 288.282532,283.642761 291.171570,271.892822 
	C291.464722,270.700562 293.463226,269.388397 294.857544,269.125793 
	C297.263611,268.672607 299.816772,269.000244 302.582520,269.000244 
	C311.407349,293.664215 320.171265,318.294556 329.038177,342.887817 
	C334.271545,357.402954 339.620636,371.877258 345.081543,386.307922 
	C345.515015,387.453369 347.163116,388.747620 348.364777,388.877045 
	C351.649506,389.230927 354.997375,388.998901 358.510468,388.998901 
	C366.667419,353.076416 374.798492,317.267914 382.983459,281.222046 
	C381.082092,281.222046 379.302155,281.222046 377.113159,281.222046 
	C369.120178,316.325104 361.109772,351.504639 353.099396,386.684143 
	C352.768951,386.718201 352.438507,386.752258 352.108063,386.786316 
	C338.343872,348.713135 324.579712,310.639923 310.815521,272.566742 
	C311.211182,272.381195 311.606842,272.195648 312.002502,272.010101 
	C316.835815,281.340576 321.669159,290.671051 326.729614,300.311951 
z"/>
<path fill="#231F20" opacity="1.000000" stroke="none" 
	d="
M143.750092,379.750000 
	C137.484543,385.285736 131.468994,390.571472 125.903839,395.461456 
	C128.095108,391.560364 130.658951,386.837280 133.372589,382.201843 
	C137.529099,375.101685 141.840973,368.092285 145.977997,360.981018 
	C147.531219,358.311066 149.143326,356.836700 152.727356,356.877472 
	C174.384186,357.123718 196.046112,357.101807 217.704056,356.911194 
	C221.869171,356.874542 222.923370,358.097229 223.159653,362.253967 
	C223.621048,370.370667 224.748825,378.484222 226.259705,386.474457 
	C226.529999,387.903839 229.975586,388.732788 233.013962,390.430725 
	C227.888916,352.886902 223.000580,317.077118 218.141663,281.482758 
	C217.328430,281.225006 217.023468,281.103851 216.707321,281.031708 
	C208.462173,279.150208 204.518478,283.287109 200.715714,290.315948 
	C191.749466,306.888702 181.669983,322.859131 171.756607,339.551758 
	C183.876556,339.551758 195.676285,339.551758 207.919113,339.551758 
	C209.018387,320.953888 210.127899,302.182495 211.237427,283.411102 
	C211.603394,283.370514 211.969360,283.329926 212.335312,283.289307 
	C215.444519,306.010010 218.553726,328.730682 221.698532,351.711609 
	C198.658630,351.711609 175.465622,351.711609 151.572525,351.711609 
	C155.446701,345.138763 159.094025,338.942169 162.749664,332.750427 
	C173.324921,314.838440 183.908112,296.931152 194.474991,279.014252 
	C195.782822,276.796722 196.963425,274.503632 198.289078,272.297272 
	C199.684875,269.974152 201.408127,268.756470 204.525833,268.888031 
	C212.487259,269.223999 220.472336,269.000000 228.684250,269.000000 
	C234.621140,312.572083 240.526901,355.915619 246.487900,399.664673 
	C236.175812,399.664673 226.429321,399.664673 216.009048,399.664673 
	C214.610397,389.852570 213.174347,379.778168 211.667831,369.209412 
	C210.511292,369.148987 209.085556,369.011169 207.659683,369.009735 
	C192.164734,368.994171 176.665634,369.201263 161.177246,368.882202 
	C156.281586,368.781342 152.610138,369.941650 149.608368,373.812225 
	C147.988129,375.901398 145.885254,377.616241 143.750092,379.750000 
z"/>
<path fill="#231F20" opacity="1.000000" stroke="none" 
	d="
M607.785034,294.025330 
	C598.558411,292.497009 589.774963,290.991974 580.992432,289.481689 
	C575.792053,288.587433 570.593079,287.684906 565.483337,286.062317 
	C582.429321,286.062317 599.375305,286.062317 616.482056,286.062317 
	C617.014099,284.433105 617.494324,282.962708 618.135254,281.000000 
	C606.022766,281.000000 594.234131,281.000000 582.445496,281.000000 
	C576.447205,281.000000 570.443054,281.158478 564.452759,280.939331 
	C560.971130,280.811981 559.448975,281.508728 558.626709,285.504944 
	C555.442139,300.981506 551.595581,316.321686 548.028625,331.720337 
	C547.890625,332.316193 548.093079,332.990936 548.149353,333.810059 
	C566.563477,333.810059 584.860474,333.810059 603.498718,333.810059 
	C603.939453,332.556213 604.449158,331.106171 605.161377,329.080139 
	C589.363525,328.554993 573.874695,328.040131 558.385925,327.525299 
	C558.394836,327.154114 558.403809,326.782928 558.412720,326.411774 
	C578.474304,323.399750 598.535889,320.387756 619.392151,317.256439 
	C618.176392,323.163391 617.102112,328.828735 615.821777,334.447113 
	C614.962219,338.219330 614.931702,343.611145 612.501526,345.226654 
	C609.573608,347.173157 604.496887,345.975616 600.349976,345.984558 
	C583.188232,346.021454 566.025574,346.078278 548.865051,345.927155 
	C545.810608,345.900269 544.572144,346.880005 543.947021,349.816101 
	C541.188965,362.771912 538.231384,375.685211 535.301636,388.812469 
	C554.978943,388.812469 574.564575,388.812469 594.513489,388.812469 
	C594.920349,387.222046 595.378357,385.431946 595.952820,383.186646 
	C578.465515,383.186646 561.073425,383.186646 543.681335,383.186646 
	C543.665039,382.934540 543.648804,382.682465 543.632568,382.430359 
	C565.529358,378.899445 587.426147,375.368561 610.215393,371.693756 
	C608.984741,377.710663 608.037842,383.176300 606.731567,388.554688 
	C603.947327,400.018555 603.870911,400.000000 591.713074,400.000000 
	C569.885803,400.000000 548.058594,400.000000 526.231323,400.000000 
	C524.585938,400.000000 522.940613,400.000000 520.826233,400.000000 
	C523.125916,390.043457 525.379456,380.518402 527.521118,370.968231 
	C532.711792,347.820679 537.815186,324.653534 543.026489,301.510681 
	C545.258423,291.598877 547.593811,281.708038 550.107117,271.865143 
	C550.398987,270.722046 552.128052,269.127747 553.198975,269.121460 
	C579.331055,268.967926 605.464172,269.001526 632.490234,269.001526 
	C630.918884,275.870758 629.442139,282.238708 628.008301,288.616364 
	C626.086548,297.164795 626.092529,297.223663 617.728821,295.972778 
	C614.537415,295.495483 611.393921,294.698029 607.785034,294.025330 
z"/>
<path fill="#231F20" opacity="1.000000" stroke="none" 
	d="
M62.999687,366.998291 
	C62.617676,368.796143 62.239887,370.158752 61.751900,371.918823 
	C83.020569,371.918823 103.821976,371.918823 124.700172,371.918823 
	C122.755386,380.406311 121.007988,388.631989 118.870636,396.755035 
	C118.524612,398.070160 116.451500,399.858368 115.169266,399.864471 
	C79.688644,400.033325 44.207062,399.999786 8.665280,399.301819 
	C15.418680,398.534546 22.173307,397.777893 28.925203,396.997620 
	C40.273716,395.686096 51.614525,394.305145 62.970177,393.059113 
	C70.131943,392.273285 77.313255,391.662872 84.488632,391.004639 
	C91.993118,390.316284 99.535751,389.899567 106.977783,388.797363 
	C108.449043,388.579468 109.539101,385.787598 110.804970,384.182770 
	C110.452301,383.797211 110.099640,383.411682 109.746971,383.026123 
	C89.300041,383.026123 68.853119,383.026123 47.456203,383.026123 
	C56.149239,344.798065 64.718857,307.112732 73.338982,269.205322 
	C83.002563,269.205322 92.795036,269.205322 103.030449,269.205322 
	C92.706818,299.502960 82.438103,329.639435 72.169388,359.775909 
	C71.659019,359.642059 71.148651,359.508209 70.638290,359.374359 
	C76.503326,333.448486 82.368370,307.522583 88.310204,281.257233 
	C86.079781,281.257233 84.315666,281.257233 82.611130,281.257233 
	C77.088898,304.780243 71.542633,328.306793 66.058388,351.847778 
	C64.922073,356.725342 64.016068,361.656525 62.999687,366.998291 
z"/>
<path fill="#231F20" opacity="1.000000" stroke="none" 
	d="
M715.267151,335.369171 
	C721.851990,329.126007 727.684448,322.665405 730.393372,313.424500 
	C733.969360,301.225800 730.233643,289.458954 721.659241,285.308075 
	C717.550354,283.318970 712.967896,281.394470 708.520569,281.192963 
	C696.218628,280.635620 683.874939,281.024658 671.547913,280.979645 
	C669.024719,280.970428 667.570862,281.167419 666.858704,284.457550 
	C660.749939,312.678711 654.341064,340.835266 647.942810,368.993103 
	C646.452576,375.551453 644.660583,382.041229 642.992004,388.623505 
	C647.557373,389.790222 649.280823,388.672485 650.208008,383.710541 
	C652.752747,370.091187 656.272766,356.653839 659.418274,343.147156 
	C660.190735,339.830139 661.007019,336.523315 661.803162,333.211823 
	C662.360657,333.318512 662.918213,333.425201 663.475708,333.531860 
	C662.681030,342.269287 661.852722,351.003845 661.104492,359.745239 
	C660.669983,364.820892 660.307739,369.904327 660.014038,374.990051 
	C659.624329,381.738525 659.263733,388.490234 659.029053,395.245361 
	C658.912903,398.589050 657.846619,400.208984 654.059204,400.084503 
	C645.764648,399.811768 637.454956,400.000000 628.745361,400.000000 
	C638.704224,356.131439 648.554016,312.743286 658.484009,269.001740 
	C675.484924,269.001740 692.656433,268.310913 709.738770,269.246552 
	C720.979553,269.862244 731.259338,273.866669 738.604065,283.843719 
	C745.878113,293.724731 743.345093,309.621582 736.632751,318.955231 
	C731.361877,326.284485 724.334900,331.402740 716.238525,335.855652 
	C715.545227,335.595978 715.406189,335.482574 715.267151,335.369171 
z"/>
<path fill="#909495" opacity="1.000000" stroke="none" 
	d="
M221.284042,476.389709 
	C218.833908,485.962341 211.547012,482.399200 205.365128,482.961945 
	C203.458740,466.057129 201.574127,449.345428 199.648956,432.274078 
	C204.740402,432.274078 208.999268,432.274078 213.699341,432.274078 
	C214.697372,440.046692 215.697647,447.836761 216.749207,456.026123 
	C225.666183,449.052551 221.090637,440.321320 221.088104,432.241272 
	C228.117752,432.241272 234.714554,432.241272 241.815567,432.241272 
	C242.750336,440.012238 243.679382,447.735657 244.608414,455.459045 
	C245.005219,455.594299 245.402008,455.729553 245.798798,455.864838 
	C248.232651,451.783905 250.669540,447.704803 253.096756,443.619934 
	C253.433716,443.052856 253.732880,442.462463 254.032623,441.874207 
	C259.320648,431.496735 261.339935,430.529358 274.175964,432.606354 
	C270.257141,439.779510 266.509857,446.835785 262.576447,453.786804 
	C258.047821,461.789764 252.992783,469.518372 248.881989,477.724609 
	C246.749649,481.981323 244.230576,483.644043 239.711746,483.043365 
	C237.764679,482.784576 235.754578,483.000000 233.493744,483.000000 
	C232.600311,475.709900 231.736374,468.660583 230.731781,460.463501 
	C227.262589,466.317078 224.372681,471.193176 221.284042,476.389709 
z"/>
<path fill="#231F20" opacity="1.000000" stroke="none" 
	d="
M691.726562,384.341125 
	C685.537048,365.877747 679.573975,347.755524 673.610962,329.633301 
	C673.951782,329.476105 674.292664,329.318878 674.633484,329.161682 
	C675.368591,330.267883 676.231628,331.310333 676.819702,332.489838 
	C685.323853,349.545715 693.935242,366.550842 702.167969,383.737274 
	C704.285767,388.158417 706.795898,390.189575 712.201294,388.495911 
	C701.742737,368.230927 691.301453,347.999390 680.434814,326.943512 
	C695.601685,327.316437 710.189575,327.848907 722.737427,317.257568 
	C719.355286,328.206879 709.487122,335.453827 700.143066,337.500732 
	C710.742859,358.226959 721.319519,378.907776 732.106140,399.999329 
	C720.835449,399.999329 710.207581,400.076691 699.584229,399.892700 
	C698.377258,399.871796 696.549255,398.635040 696.117126,397.529175 
	C694.481812,393.343506 693.302856,388.979553 691.726562,384.341125 
z"/>
<path fill="#909495" opacity="1.000000" stroke="none" 
	d="
M310.263031,463.001892 
	C308.866211,463.798523 307.341553,464.438019 307.080078,465.415436 
	C305.855438,469.993408 304.951019,474.658722 303.989166,479.304626 
	C303.509491,481.621613 302.677826,483.222534 299.810425,483.047821 
	C296.355042,482.837311 292.877014,482.998047 288.919861,482.998047 
	C292.823975,465.784637 296.607208,449.104279 300.435333,432.225861 
	C304.784485,432.225861 309.054169,432.225861 314.257477,432.225861 
	C313.068573,438.114929 311.936340,443.723358 310.838593,449.161011 
	C311.677429,449.593018 311.959290,449.856262 312.255676,449.873749 
	C322.760529,450.493774 322.753876,450.489288 324.969116,438.490906 
	C325.350677,436.424103 325.818237,434.373199 326.270874,432.195679 
	C330.833557,432.195679 335.110260,432.195679 340.257996,432.195679 
	C336.369507,449.309418 332.563385,466.060608 328.769775,482.756744 
	C323.991394,482.756744 319.716064,482.756744 314.780853,482.756744 
	C316.237427,476.254944 317.614471,470.108063 319.206787,463.000427 
	C316.132965,463.000427 313.425049,463.000427 310.263031,463.001892 
z"/>
<path fill="#909495" opacity="1.000000" stroke="none" 
	d="
M449.999969,432.000000 
	C455.648651,432.000000 460.798859,432.000000 466.613464,432.000000 
	C465.599335,436.760498 464.646942,441.231140 463.790741,445.250275 
	C457.298370,447.929230 449.719971,443.067017 444.275665,448.233337 
	C444.372192,448.873474 444.468750,449.513580 444.565277,450.153687 
	C450.291534,450.153687 456.017792,450.153687 462.061798,450.153687 
	C461.251373,453.894409 460.862030,457.183960 459.730743,460.194794 
	C459.263824,461.437469 457.253937,462.771271 455.859741,462.871979 
	C451.234528,463.205994 446.570160,462.998138 441.602905,462.998138 
	C441.113617,464.902588 440.650970,466.703186 440.079620,468.926941 
	C446.371368,468.926941 452.325745,468.926941 458.889282,468.926941 
	C457.764526,473.851227 456.745209,478.313904 455.729187,482.762146 
	C445.050476,482.762146 434.794403,482.762146 423.389496,482.762146 
	C427.103943,465.785889 430.720062,449.259186 434.496429,432.000000 
	C439.317139,432.000000 444.409332,432.000000 449.999969,432.000000 
z"/>
<path fill="#909495" opacity="1.000000" stroke="none" 
	d="
M371.172577,432.999512 
	C381.695526,432.573303 392.103912,432.573303 403.254517,432.573303 
	C402.415466,436.561584 401.783020,440.551544 400.610229,444.375763 
	C400.351868,445.218292 398.197418,445.855469 396.880585,445.926147 
	C393.061523,446.131195 389.203583,445.768707 385.404297,446.110962 
	C383.804810,446.255127 382.314301,447.609009 380.774231,448.412994 
	C380.969238,448.901794 381.164215,449.390625 381.359222,449.879425 
	C386.970306,449.879425 392.581390,449.879425 398.708374,449.879425 
	C397.697266,454.429993 396.789886,458.513672 395.813904,462.906128 
	C389.994049,462.906128 384.373688,462.906128 378.544464,462.906128 
	C377.963165,464.843903 377.465851,466.501678 376.772064,468.814514 
	C382.936035,468.814514 388.650116,468.814514 395.315674,468.814514 
	C394.376587,473.895599 393.568878,478.265839 392.732300,482.792419 
	C381.816132,482.792419 371.206757,482.792419 360.050415,482.792419 
	C363.755127,466.177551 367.406586,449.801636 371.172577,432.999512 
z"/>
<path fill="#909495" opacity="1.000000" stroke="none" 
	d="
M581.992615,465.649750 
	C576.775635,483.517639 555.477356,489.809906 541.107544,477.556793 
	C543.415283,473.698914 545.781006,469.744110 547.752747,466.447906 
	C552.855225,467.783844 557.038208,469.336639 561.339539,469.806213 
	C563.394531,470.030548 565.673889,468.198853 567.851562,467.298401 
	C566.916138,465.105347 565.980713,462.912292 564.678040,459.858185 
	C562.676392,462.610901 561.545715,464.165802 560.307861,465.868164 
	C554.623535,464.235687 550.853760,460.692596 550.051941,454.690125 
	C548.918518,446.205872 551.914551,439.372528 559.348938,434.948639 
	C567.465393,430.119019 579.028381,430.741364 587.892578,436.401764 
	C585.557068,440.413788 583.206299,444.452026 581.048157,448.159332 
	C576.843384,447.051941 573.010010,445.729950 569.068176,445.168579 
	C567.630432,444.963806 565.691101,446.316620 564.487671,447.482330 
	C564.059204,447.897369 565.131348,449.861542 565.575256,451.303009 
	C572.601562,446.477234 580.735901,451.515472 581.948425,460.728790 
	C582.142456,462.202789 581.990234,463.722351 581.992615,465.649750 
z"/>
<path fill="#909495" opacity="1.000000" stroke="none" 
	d="
M510.075378,443.137390 
	C508.095428,451.822083 506.167694,460.088806 504.105774,468.931122 
	C509.380585,468.931122 514.434509,468.931122 520.456421,468.931122 
	C519.464478,474.006866 518.611206,478.372833 517.752197,482.768372 
	C507.379639,482.768372 497.452362,482.768372 486.518829,482.768372 
	C490.493408,465.711151 494.367584,449.084930 498.290436,432.249756 
	C503.029907,432.249756 507.640320,432.249756 512.568359,432.249756 
	C511.741730,435.795563 510.934692,439.257507 510.075378,443.137390 
z"/>
<path fill="#231F20" opacity="1.000000" stroke="none" 
	d="
M680.293945,300.208130 
	C674.977844,306.716827 669.924683,312.979858 664.867432,319.247864 
	C667.313782,308.440338 669.820312,297.366699 672.365601,286.122040 
	C689.277832,283.720856 705.500366,285.175201 720.755981,293.327515 
	C706.477844,290.660858 692.610840,289.509491 680.293945,300.208130 
z"/>
<path fill="#231F20" opacity="1.000000" stroke="none" 
	d="
M715.879150,335.895020 
	C715.197449,336.440918 714.320923,336.801147 713.444336,337.161407 
	C713.341187,336.878296 713.237976,336.595154 713.134827,336.312042 
	C713.676941,336.136749 714.219116,335.961456 715.014160,335.577667 
	C715.406189,335.482574 715.545227,335.595978 715.879150,335.895020 
z"/>
</svg>